<svg width="108" height="26" viewBox="0 0 108 26" fill="none" xmlns="http://www.w3.org/2000/svg">
<rect width="108" height="26" fill="#E5E5E5"/>
<g clip-path="url(#clip0_0_1)">
<rect width="1600" height="4975" transform="translate(-220 -4791)" fill="white"/>
<rect x="-220" y="-259" width="1600" height="443" fill="#111115"/>
<circle cx="13" cy="13" r="13" fill="#C4C4C4" fill-opacity="0.5"/>
<path fill-rule="evenodd" clip-rule="evenodd" d="M17 7.75008H15.4C14.2983 7.75008 14.3334 8.14316 14.3334 8.8619V9.99991H17L16.4666 13H14.3334V21H10.6V13H9V9.99991H10.6V8.58692C10.6 6.33782 11.7974 5 14.6268 5H17V7.75008Z" fill="white"/>
<path d="M40.8281 9.625V21H39.3203V9.625H40.8281ZM45.5938 14.7422V15.9766H40.5V14.7422H45.5938ZM46.3672 9.625V10.8594H40.5V9.625H46.3672ZM52.6641 19.5547V15.2031C52.6641 14.8698 52.5964 14.5807 52.4609 14.3359C52.3307 14.0859 52.1328 13.8932 51.8672 13.7578C51.6016 13.6224 51.2734 13.5547 50.8828 13.5547C50.5182 13.5547 50.1979 13.6172 49.9219 13.7422C49.651 13.8672 49.4375 14.0312 49.2812 14.2344C49.1302 14.4375 49.0547 14.6562 49.0547 14.8906H47.6094C47.6094 14.5885 47.6875 14.2891 47.8438 13.9922C48 13.6953 48.224 13.4271 48.5156 13.1875C48.8125 12.9427 49.1667 12.75 49.5781 12.6094C49.9948 12.4635 50.4583 12.3906 50.9688 12.3906C51.5833 12.3906 52.125 12.4948 52.5938 12.7031C53.0677 12.9115 53.4375 13.2266 53.7031 13.6484C53.974 14.0651 54.1094 14.5885 54.1094 15.2188V19.1562C54.1094 19.4375 54.1328 19.737 54.1797 20.0547C54.2318 20.3724 54.3073 20.6458 54.4062 20.875V21H52.8984C52.8255 20.8333 52.7682 20.612 52.7266 20.3359C52.6849 20.0547 52.6641 19.7943 52.6641 19.5547ZM52.9141 15.875L52.9297 16.8906H51.4688C51.0573 16.8906 50.6901 16.9245 50.3672 16.9922C50.0443 17.0547 49.7734 17.151 49.5547 17.2812C49.3359 17.4115 49.1693 17.5755 49.0547 17.7734C48.9401 17.9661 48.8828 18.1927 48.8828 18.4531C48.8828 18.7188 48.9427 18.9609 49.0625 19.1797C49.1823 19.3984 49.362 19.5729 49.6016 19.7031C49.8464 19.8281 50.1458 19.8906 50.5 19.8906C50.9427 19.8906 51.3333 19.7969 51.6719 19.6094C52.0104 19.4219 52.2786 19.1927 52.4766 18.9219C52.6797 18.651 52.7891 18.388 52.8047 18.1328L53.4219 18.8281C53.3854 19.0469 53.2865 19.2891 53.125 19.5547C52.9635 19.8203 52.7474 20.0755 52.4766 20.3203C52.2109 20.5599 51.8932 20.7604 51.5234 20.9219C51.1589 21.0781 50.7474 21.1562 50.2891 21.1562C49.7161 21.1562 49.2135 21.0443 48.7812 20.8203C48.3542 20.5964 48.0208 20.2969 47.7812 19.9219C47.5469 19.5417 47.4297 19.1172 47.4297 18.6484C47.4297 18.1953 47.5182 17.7969 47.6953 17.4531C47.8724 17.1042 48.1276 16.8151 48.4609 16.5859C48.7943 16.3516 49.1953 16.1745 49.6641 16.0547C50.1328 15.9349 50.6562 15.875 51.2344 15.875H52.9141ZM59.7656 19.9688C60.1094 19.9688 60.4271 19.8984 60.7188 19.7578C61.0104 19.6172 61.25 19.4245 61.4375 19.1797C61.625 18.9297 61.7318 18.6458 61.7578 18.3281H63.1328C63.1068 18.8281 62.9375 19.2943 62.625 19.7266C62.3177 20.1536 61.9141 20.5 61.4141 20.7656C60.9141 21.026 60.3646 21.1562 59.7656 21.1562C59.1302 21.1562 58.5755 21.0443 58.1016 20.8203C57.6328 20.5964 57.2422 20.2891 56.9297 19.8984C56.6224 19.5078 56.3906 19.0599 56.2344 18.5547C56.0833 18.0443 56.0078 17.5052 56.0078 16.9375V16.6094C56.0078 16.0417 56.0833 15.5052 56.2344 15C56.3906 14.4896 56.6224 14.0391 56.9297 13.6484C57.2422 13.2578 57.6328 12.9505 58.1016 12.7266C58.5755 12.5026 59.1302 12.3906 59.7656 12.3906C60.4271 12.3906 61.0052 12.526 61.5 12.7969C61.9948 13.0625 62.3828 13.4271 62.6641 13.8906C62.9505 14.349 63.1068 14.8698 63.1328 15.4531H61.7578C61.7318 15.1042 61.6328 14.7891 61.4609 14.5078C61.2943 14.2266 61.0651 14.0026 60.7734 13.8359C60.487 13.6641 60.151 13.5781 59.7656 13.5781C59.3229 13.5781 58.9505 13.6667 58.6484 13.8438C58.3516 14.0156 58.1146 14.25 57.9375 14.5469C57.7656 14.8385 57.6406 15.1641 57.5625 15.5234C57.4896 15.8776 57.4531 16.2396 57.4531 16.6094V16.9375C57.4531 17.3073 57.4896 17.6719 57.5625 18.0312C57.6354 18.3906 57.7578 18.7161 57.9297 19.0078C58.1068 19.2995 58.3438 19.5339 58.6406 19.7109C58.9427 19.8828 59.3177 19.9688 59.7656 19.9688ZM68.2656 21.1562C67.6771 21.1562 67.1432 21.0573 66.6641 20.8594C66.1901 20.6562 65.7812 20.3724 65.4375 20.0078C65.099 19.6432 64.8385 19.2109 64.6562 18.7109C64.474 18.2109 64.3828 17.6641 64.3828 17.0703V16.7422C64.3828 16.0547 64.4844 15.4427 64.6875 14.9062C64.8906 14.3646 65.1667 13.9062 65.5156 13.5312C65.8646 13.1562 66.2604 12.8724 66.7031 12.6797C67.1458 12.487 67.6042 12.3906 68.0781 12.3906C68.6823 12.3906 69.2031 12.4948 69.6406 12.7031C70.0833 12.9115 70.4453 13.2031 70.7266 13.5781C71.0078 13.9479 71.2161 14.3854 71.3516 14.8906C71.487 15.3906 71.5547 15.9375 71.5547 16.5312V17.1797H65.2422V16H70.1094V15.8906C70.0885 15.5156 70.0104 15.151 69.875 14.7969C69.7448 14.4427 69.5365 14.151 69.25 13.9219C68.9635 13.6927 68.5729 13.5781 68.0781 13.5781C67.75 13.5781 67.4479 13.6484 67.1719 13.7891C66.8958 13.9245 66.6589 14.1276 66.4609 14.3984C66.263 14.6693 66.1094 15 66 15.3906C65.8906 15.7812 65.8359 16.2318 65.8359 16.7422V17.0703C65.8359 17.4714 65.8906 17.849 66 18.2031C66.1146 18.5521 66.2786 18.8594 66.4922 19.125C66.7109 19.3906 66.974 19.599 67.2812 19.75C67.5938 19.901 67.9479 19.9766 68.3438 19.9766C68.8542 19.9766 69.2865 19.8724 69.6406 19.6641C69.9948 19.4557 70.3047 19.1771 70.5703 18.8281L71.4453 19.5234C71.263 19.7995 71.0312 20.0625 70.75 20.3125C70.4688 20.5625 70.1224 20.7656 69.7109 20.9219C69.3047 21.0781 68.8229 21.1562 68.2656 21.1562ZM73.2344 9H74.6875V19.3594L74.5625 21H73.2344V9ZM80.3984 16.7031V16.8672C80.3984 17.4818 80.3255 18.0521 80.1797 18.5781C80.0339 19.099 79.8203 19.5521 79.5391 19.9375C79.2578 20.3229 78.9141 20.6224 78.5078 20.8359C78.1016 21.0495 77.6354 21.1562 77.1094 21.1562C76.5729 21.1562 76.1016 21.0651 75.6953 20.8828C75.2943 20.6953 74.9557 20.4271 74.6797 20.0781C74.4036 19.7292 74.1823 19.3073 74.0156 18.8125C73.8542 18.3177 73.7422 17.7604 73.6797 17.1406V16.4219C73.7422 15.7969 73.8542 15.237 74.0156 14.7422C74.1823 14.2474 74.4036 13.8255 74.6797 13.4766C74.9557 13.1224 75.2943 12.8542 75.6953 12.6719C76.0964 12.4844 76.5625 12.3906 77.0938 12.3906C77.625 12.3906 78.0964 12.4948 78.5078 12.7031C78.9193 12.9062 79.263 13.1979 79.5391 13.5781C79.8203 13.9583 80.0339 14.4141 80.1797 14.9453C80.3255 15.4714 80.3984 16.0573 80.3984 16.7031ZM78.9453 16.8672V16.7031C78.9453 16.2812 78.9062 15.8854 78.8281 15.5156C78.75 15.1406 78.625 14.8125 78.4531 14.5312C78.2812 14.2448 78.0547 14.0208 77.7734 13.8594C77.4922 13.6927 77.1458 13.6094 76.7344 13.6094C76.3698 13.6094 76.0521 13.6719 75.7812 13.7969C75.5156 13.9219 75.2891 14.0911 75.1016 14.3047C74.9141 14.513 74.7604 14.7526 74.6406 15.0234C74.526 15.2891 74.4401 15.5651 74.3828 15.8516V17.7344C74.4661 18.099 74.6016 18.4505 74.7891 18.7891C74.9818 19.1224 75.237 19.3958 75.5547 19.6094C75.8776 19.8229 76.276 19.9297 76.75 19.9297C77.1406 19.9297 77.474 19.8516 77.75 19.6953C78.0312 19.5339 78.2578 19.3125 78.4297 19.0312C78.6068 18.75 78.737 18.4245 78.8203 18.0547C78.9036 17.6849 78.9453 17.2891 78.9453 16.8672ZM81.8438 16.8672V16.6875C81.8438 16.0781 81.9323 15.513 82.1094 14.9922C82.2865 14.4661 82.5417 14.0104 82.875 13.625C83.2083 13.2344 83.612 12.9323 84.0859 12.7188C84.5599 12.5 85.0911 12.3906 85.6797 12.3906C86.2734 12.3906 86.8073 12.5 87.2812 12.7188C87.7604 12.9323 88.1667 13.2344 88.5 13.625C88.8385 14.0104 89.0964 14.4661 89.2734 14.9922C89.4505 15.513 89.5391 16.0781 89.5391 16.6875V16.8672C89.5391 17.4766 89.4505 18.0417 89.2734 18.5625C89.0964 19.0833 88.8385 19.5391 88.5 19.9297C88.1667 20.3151 87.763 20.6172 87.2891 20.8359C86.8203 21.0495 86.2891 21.1562 85.6953 21.1562C85.1016 21.1562 84.5677 21.0495 84.0938 20.8359C83.6198 20.6172 83.2135 20.3151 82.875 19.9297C82.5417 19.5391 82.2865 19.0833 82.1094 18.5625C81.9323 18.0417 81.8438 17.4766 81.8438 16.8672ZM83.2891 16.6875V16.8672C83.2891 17.2891 83.3385 17.6875 83.4375 18.0625C83.5365 18.4323 83.6849 18.7604 83.8828 19.0469C84.0859 19.3333 84.3385 19.5599 84.6406 19.7266C84.9427 19.888 85.2943 19.9688 85.6953 19.9688C86.0911 19.9688 86.4375 19.888 86.7344 19.7266C87.0365 19.5599 87.2865 19.3333 87.4844 19.0469C87.6823 18.7604 87.8307 18.4323 87.9297 18.0625C88.0339 17.6875 88.0859 17.2891 88.0859 16.8672V16.6875C88.0859 16.2708 88.0339 15.8776 87.9297 15.5078C87.8307 15.1328 87.6797 14.8021 87.4766 14.5156C87.2786 14.224 87.0286 13.9948 86.7266 13.8281C86.4297 13.6615 86.0807 13.5781 85.6797 13.5781C85.2839 13.5781 84.9349 13.6615 84.6328 13.8281C84.3359 13.9948 84.0859 14.224 83.8828 14.5156C83.6849 14.8021 83.5365 15.1328 83.4375 15.5078C83.3385 15.8776 83.2891 16.2708 83.2891 16.6875ZM90.9688 16.8672V16.6875C90.9688 16.0781 91.0573 15.513 91.2344 14.9922C91.4115 14.4661 91.6667 14.0104 92 13.625C92.3333 13.2344 92.737 12.9323 93.2109 12.7188C93.6849 12.5 94.2161 12.3906 94.8047 12.3906C95.3984 12.3906 95.9323 12.5 96.4062 12.7188C96.8854 12.9323 97.2917 13.2344 97.625 13.625C97.9635 14.0104 98.2214 14.4661 98.3984 14.9922C98.5755 15.513 98.6641 16.0781 98.6641 16.6875V16.8672C98.6641 17.4766 98.5755 18.0417 98.3984 18.5625C98.2214 19.0833 97.9635 19.5391 97.625 19.9297C97.2917 20.3151 96.888 20.6172 96.4141 20.8359C95.9453 21.0495 95.4141 21.1562 94.8203 21.1562C94.2266 21.1562 93.6927 21.0495 93.2188 20.8359C92.7448 20.6172 92.3385 20.3151 92 19.9297C91.6667 19.5391 91.4115 19.0833 91.2344 18.5625C91.0573 18.0417 90.9688 17.4766 90.9688 16.8672ZM92.4141 16.6875V16.8672C92.4141 17.2891 92.4635 17.6875 92.5625 18.0625C92.6615 18.4323 92.8099 18.7604 93.0078 19.0469C93.2109 19.3333 93.4635 19.5599 93.7656 19.7266C94.0677 19.888 94.4193 19.9688 94.8203 19.9688C95.2161 19.9688 95.5625 19.888 95.8594 19.7266C96.1615 19.5599 96.4115 19.3333 96.6094 19.0469C96.8073 18.7604 96.9557 18.4323 97.0547 18.0625C97.1589 17.6875 97.2109 17.2891 97.2109 16.8672V16.6875C97.2109 16.2708 97.1589 15.8776 97.0547 15.5078C96.9557 15.1328 96.8047 14.8021 96.6016 14.5156C96.4036 14.224 96.1536 13.9948 95.8516 13.8281C95.5547 13.6615 95.2057 13.5781 94.8047 13.5781C94.4089 13.5781 94.0599 13.6615 93.7578 13.8281C93.4609 13.9948 93.2109 14.224 93.0078 14.5156C92.8099 14.8021 92.6615 15.1328 92.5625 15.5078C92.4635 15.8776 92.4141 16.2708 92.4141 16.6875ZM101.93 9V21H100.477V9H101.93ZM107.094 12.5469L103.406 16.4922L101.344 18.6328L101.227 17.0938L102.703 15.3281L105.328 12.5469H107.094ZM105.773 21L102.758 16.9688L103.508 15.6797L107.477 21H105.773Z" fill="white"/>
</g>
<defs>
<clipPath id="clip0_0_1">
<rect width="1600" height="4975" fill="white" transform="translate(-220 -4791)"/>
</clipPath>
</defs>
</svg>
